<svg width="23" height="17" viewBox="0 0 23 17" fill="none" xmlns="http://www.w3.org/2000/svg">
<path d="M19.8844 4.05069C19.8984 4.22845 19.8984 4.40626 19.8984 4.58402C19.8984 10.0061 15.3282 16.2536 6.97501 16.2536C4.40156 16.2536 2.01095 15.5806 0 14.4124C0.365638 14.4505 0.717166 14.4632 1.09687 14.4632C3.22028 14.4632 5.17499 13.8156 6.73594 12.7108C4.73906 12.6727 3.06561 11.4918 2.48904 9.86644C2.77032 9.90451 3.05155 9.92992 3.34689 9.92992C3.75469 9.92992 4.16253 9.87911 4.54219 9.79026C2.46095 9.40929 0.899963 7.75855 0.899963 5.76494V5.71417C1.50463 6.01893 2.20781 6.20939 2.95307 6.23476C1.72963 5.49826 0.928099 4.24116 0.928099 2.81896C0.928099 2.05708 1.15306 1.35869 1.54683 0.749171C3.78278 3.238 7.14374 4.86334 10.9124 5.04114C10.8422 4.73638 10.7999 4.41896 10.7999 4.1015C10.7999 1.84121 12.825 0 15.3421 0C16.6499 0 17.8312 0.495226 18.6609 1.29521C19.6874 1.11744 20.6718 0.774577 21.5437 0.304757C21.2062 1.25714 20.489 2.05712 19.5468 2.56501C20.4609 2.47617 21.3468 2.24755 22.1624 1.93013C21.5438 2.74278 20.7703 3.46654 19.8844 4.05069Z" fill="#FF2A70"/>
</svg>
