<svg width="48" height="48" viewBox="0 0 48 48" fill="none" xmlns="http://www.w3.org/2000/svg">
<rect x="1" y="1" width="46" height="46" stroke="white" stroke-width="2"/>
<path d="M34.5891 29.6789C34.3726 30.184 33.4573 30.5551 31.7902 30.8139C31.7045 30.9297 31.6334 31.4242 31.5199 31.8093C31.4523 32.0406 31.2862 32.1779 31.0159 32.1779L31.0036 32.1776C30.6132 32.1776 30.2057 31.998 29.3893 31.998C28.2873 31.998 27.9075 32.2491 27.0519 32.8535C26.1447 33.4949 25.2747 34.0486 23.976 33.9919C22.6611 34.0889 21.565 33.2894 20.9481 32.8533C20.0875 32.2448 19.7088 31.9981 18.6113 31.9981C17.8275 31.9981 17.3342 32.1942 16.9969 32.1942C16.6615 32.1942 16.531 31.9897 16.4808 31.8186C16.3685 31.4368 16.2978 30.9351 16.2098 30.8159C15.3505 30.6826 13.413 30.3446 13.3636 29.4801C13.3576 29.3714 13.392 29.2644 13.46 29.1795C13.5281 29.0947 13.6251 29.0379 13.7325 29.0202C16.6237 28.5442 17.9259 25.5756 17.9801 25.4495C17.9832 25.4422 17.9865 25.4352 17.9899 25.4281C18.1442 25.115 18.1787 24.8527 18.0923 24.6489C17.8824 24.1546 16.9757 23.9773 16.5942 23.8264C15.6089 23.4372 15.4717 22.9901 15.53 22.6836C15.6313 22.1502 16.4327 21.822 16.9013 22.0415C17.2719 22.2152 17.6011 22.3031 17.8797 22.3031C18.0884 22.3031 18.2209 22.2531 18.2935 22.2129C18.2087 20.7198 17.9985 18.586 18.5298 17.3943C19.9331 14.2482 22.9075 14.0037 23.7851 14.0037C23.8243 14.0037 24.1649 14 24.2051 14C26.3719 14 28.4539 15.1127 29.4706 17.3923C30.0015 18.5828 29.7926 20.7078 29.7072 22.2126C29.7729 22.2488 29.8883 22.2933 30.0645 22.3015C30.3303 22.2896 30.6385 22.2022 30.9815 22.0415C31.2343 21.9232 31.5801 21.9392 31.8325 22.0439L31.8337 22.0443C32.2274 22.185 32.4752 22.4688 32.4814 22.7868C32.489 23.1918 32.1273 23.5416 31.4061 23.8264C31.3181 23.861 31.2111 23.8951 31.0973 23.9313C30.6902 24.0603 30.0751 24.2556 29.9082 24.6489C29.8219 24.8527 29.8561 25.1147 30.0105 25.4279C30.0141 25.4349 30.0174 25.4421 30.0204 25.4493C30.0744 25.5752 31.3756 28.5432 34.2681 29.0199C34.5352 29.0639 34.732 29.3472 34.5891 29.6789Z" fill="white"/>
</svg>
