<svg width="48" height="48" viewBox="0 0 48 48" fill="none" xmlns="http://www.w3.org/2000/svg">
<rect x="1" y="1" width="46" height="46" stroke="white" stroke-width="2"/>
<path d="M24.0027 17.8467C20.5967 17.8467 17.8494 20.594 17.8494 24C17.8494 27.406 20.5967 30.1533 24.0027 30.1533C27.4087 30.1533 30.156 27.406 30.156 24C30.156 20.594 27.4087 17.8467 24.0027 17.8467ZM24.0027 28.0004C21.8016 28.0004 20.0022 26.2064 20.0022 24C20.0022 21.7936 21.7963 19.9996 24.0027 19.9996C26.2091 19.9996 28.0031 21.7936 28.0031 24C28.0031 26.2064 26.2037 28.0004 24.0027 28.0004ZM31.8429 17.595C31.8429 18.3929 31.2003 19.0302 30.4077 19.0302C29.6097 19.0302 28.9724 18.3876 28.9724 17.595C28.9724 16.8024 29.6151 16.1598 30.4077 16.1598C31.2003 16.1598 31.8429 16.8024 31.8429 17.595ZM35.9183 19.0517C35.8273 17.1291 35.3882 15.4261 33.9797 14.023C32.5766 12.6199 30.8736 12.1807 28.951 12.0843C26.9695 11.9719 21.0305 11.9719 19.049 12.0843C17.1318 12.1754 15.4288 12.6145 14.0203 14.0176C12.6118 15.4207 12.1781 17.1237 12.0817 19.0463C11.9692 21.0278 11.9692 26.9669 12.0817 28.9483C12.1727 30.8709 12.6118 32.5739 14.0203 33.977C15.4288 35.3801 17.1264 35.8193 19.049 35.9157C21.0305 36.0281 26.9695 36.0281 28.951 35.9157C30.8736 35.8246 32.5766 35.3855 33.9797 33.977C35.3828 32.5739 35.8219 30.8709 35.9183 28.9483C36.0308 26.9669 36.0308 21.0331 35.9183 19.0517ZM33.3585 31.0744C32.9408 32.1241 32.1321 32.9327 31.0771 33.3558C29.4973 33.9824 25.7485 33.8378 24.0027 33.8378C22.2568 33.8378 18.5027 33.977 16.9283 33.3558C15.8786 32.9381 15.07 32.1294 14.6469 31.0744C14.0203 29.4946 14.1649 25.7458 14.1649 24C14.1649 22.2542 14.0257 18.5001 14.6469 16.9256C15.0646 15.8759 15.8733 15.0673 16.9283 14.6442C18.5081 14.0176 22.2568 14.1622 24.0027 14.1622C25.7485 14.1622 29.5026 14.023 31.0771 14.6442C32.1267 15.0619 32.9354 15.8706 33.3585 16.9256C33.9851 18.5054 33.8405 22.2542 33.8405 24C33.8405 25.7458 33.9851 29.4999 33.3585 31.0744Z" fill="white"/>
</svg>
